HIERARCHY
ROOT Hips
{
	OFFSET 0.000000 0.000000 0.000000 
	CHANNELS 6 Xposition Yposition Zposition Zrotation Yrotation Xrotation
	JOINT LeftUpLeg
	{
		OFFSET 1.363060 -1.794630 0.839290 
		CHANNELS 3 Zrotation Yrotation Xrotation
		JOINT LeftLeg
		{
			OFFSET 2.448110 -6.726130 0.000000 
			CHANNELS 3 Zrotation Yrotation Xrotation
			JOINT LeftFoot
			{
				OFFSET 2.562200 -7.039590 0.000000 
				CHANNELS 3 Zrotation Yrotation Xrotation
				JOINT LeftToeBase
				{
					OFFSET 0.157640 -0.433110 2.322550 
					CHANNELS 3 Zrotation Yrotation Xrotation
					End Site
					{
						OFFSET 0.000000 0.000000 0.000000 
					}
				}
			}
		}
	}
	JOINT RightUpLeg
	{
		OFFSET -1.305520 -1.794630 0.839290 
		CHANNELS 3 Zrotation Yrotation Xrotation
		JOINT RightLeg
		{
			OFFSET -2.542530 -6.985550 0.000000 
			CHANNELS 3 Zrotation Yrotation Xrotation
			JOINT RightFoot
			{
				OFFSET -2.568260 -7.056230 0.000000 
				CHANNELS 3 Zrotation Yrotation Xrotation
				JOINT RightToeBase
				{
					OFFSET -0.164730 -0.452590 2.363150 
					CHANNELS 3 Zrotation Yrotation Xrotation
					End Site
					{
						OFFSET 0.000000 0.000000 0.000000 
					}
				}
			}
		}
	}
	JOINT Spine
	{
		OFFSET 0.028270 2.035590 -0.193380 
		CHANNELS 3 Zrotation Yrotation Xrotation
		JOINT Spine1
		{
			OFFSET 0.056720 2.048850 -0.042750 
			CHANNELS 3 Zrotation Yrotation Xrotation
			JOINT Neck1
			{
				OFFSET -0.054170 1.746240 0.172020 
				CHANNELS 3 Zrotation Yrotation Xrotation
				JOINT Head
				{
					OFFSET 0.104070 1.761360 -0.123970 
					CHANNELS 3 Zrotation Yrotation Xrotation
					End Site
					{
						OFFSET 0.000000 0.000000 0.000000 
					}
				}
			}
			JOINT LeftArm
			{
				OFFSET 3.362410 1.200890 -0.311210 
				CHANNELS 3 Zrotation Yrotation Xrotation
				JOINT LeftForeArm
				{
					OFFSET 4.983000 -0.000000 -0.000000 
					CHANNELS 3 Zrotation Yrotation Xrotation
					JOINT LeftHand
					{
						OFFSET 3.483560 -0.000000 -0.000000 
						CHANNELS 3 Zrotation Yrotation Xrotation
						JOINT LeftHandIndex1
						{
							OFFSET 0.715260 -0.000000 -0.000000 
							CHANNELS 3 Zrotation Yrotation Xrotation
							End Site
							{
								OFFSET 0.000000 0.000000 0.000000 
							}
						}
					}
				}
			}
			JOINT RightArm
			{
				OFFSET -3.136600 1.374050 -0.404650 
				CHANNELS 3 Zrotation Yrotation Xrotation
				JOINT RightForeArm
				{
					OFFSET -5.241900 -0.000000 -0.000000 
					CHANNELS 3 Zrotation Yrotation Xrotation
					JOINT RightHand
					{
						OFFSET -3.444170 -0.000000 -0.000000 
						CHANNELS 3 Zrotation Yrotation Xrotation
						JOINT RightHandIndex1
						{
							OFFSET -0.622530 -0.000000 -0.000000 
							CHANNELS 3 Zrotation Yrotation Xrotation
							End Site
							{
								OFFSET 0.000000 0.000000 0.000000 
							}
						}
					}
				}
			}
		}
	}
}
MOTION
Frames: 17
Frame Time: 0.041667
-0.898862 18.310065 5.614698 -4.739932 -1.632981 -0.919128 -9.447512 -8.653871 -5.428755 1.212431 7.293657 23.991558 -0.535478 5.641976 -12.686681 8.467300 -16.452400 -54.229000 21.367218 -2.903074 6.265695 0.365994 0.997993 1.696719 0.405643 -4.911881 -10.855343 -0.051900 1.470500 -4.044300 2.861484 0.930869 22.895418 -3.884291 0.993902 -17.132498 5.352666 -4.827021 33.175553 0.847200 -1.392400 10.511200 -92.470372 10.070320 24.661979 25.711352 -35.019747 -7.025289 0.560565 -0.064547 11.491629 -7.125000 0.000000 0.000000 95.607800 -12.636393 16.957642 -31.965093 39.860739 -9.029680 0.584123 -3.068913 18.499821 7.125000 0.000000 0.000000 
-0.897391 18.309379 5.618817 -4.756641 -1.641719 -0.900477 -9.429149 -8.598872 -5.481510 1.220549 7.311374 24.038433 -0.533539 5.631377 -12.671667 8.490500 -16.468500 -54.310900 21.387185 -2.898332 6.267157 0.366046 0.998276 1.697112 0.401897 -4.897260 -10.872358 -0.050400 1.448500 -3.983800 2.819444 0.944746 22.851218 -3.906300 0.990091 -17.152256 5.474372 -4.838655 33.248562 0.879700 -1.379500 10.530000 -92.446485 10.154815 24.751554 25.638072 -34.947596 -6.997811 0.569621 -0.063322 11.620524 -7.125000 0.000000 0.000000 95.585551 -12.613540 16.937847 -31.904642 39.787832 -8.974800 0.610181 -3.065741 18.608433 7.125000 0.000000 0.000000 
-0.896018 18.308889 5.623916 -4.727453 -1.627939 -0.892152 -9.459557 -8.533445 -5.517862 1.221862 7.312549 24.041654 -0.551263 5.676470 -12.579721 8.543100 -16.504500 -54.496100 21.358516 -2.914696 6.271057 0.366022 0.998796 1.697397 0.401201 -4.895317 -10.878822 -0.052200 1.474300 -4.054800 2.748650 0.943546 22.872578 -3.871843 0.990046 -17.164929 5.490240 -4.834848 33.275699 0.882800 -1.373100 10.539300 -92.458994 10.208672 24.812463 25.589185 -34.900633 -6.980157 0.576619 -0.059752 11.625498 -7.125000 0.000000 0.000000 95.550528 -12.640510 16.957403 -31.963321 39.832927 -8.993310 0.669288 -3.074017 18.584798 7.125000 0.000000 0.000000 
-0.896312 18.309085 5.628329 -4.693339 -1.595638 -0.882114 -9.483978 -8.479342 -5.570531 1.225875 7.314022 24.050757 -0.556465 5.668262 -12.482619 8.577800 -16.528300 -54.618400 21.326633 -2.943588 6.259248 0.365803 0.999543 1.697484 0.403383 -4.900029 -10.861638 -0.055500 1.520300 -4.181600 2.718316 0.924569 22.969473 -3.826661 0.989591 -17.169877 5.431462 -4.830859 33.310664 0.867300 -1.377200 10.565300 -92.491366 10.208684 24.789888 25.560705 -34.874362 -6.967469 0.577054 -0.062923 11.632974 -7.125000 0.000000 0.000000 95.518661 -12.631161 16.945041 -31.988475 39.886599 -9.048569 0.649171 -3.087777 18.501293 7.125000 0.000000 0.000000 
-0.896312 18.308496 5.632350 -4.670849 -1.598091 -0.874822 -9.489414 -8.406998 -5.606782 1.229664 7.313349 24.052476 -0.540125 5.585365 -12.427257 8.565800 -16.520000 -54.576000 21.307857 -2.939522 6.254311 0.365760 1.000455 1.697730 0.402109 -4.893318 -10.866381 -0.058400 1.559000 -4.288400 2.667420 0.922992 23.061212 -3.798364 0.991878 -17.183343 5.406321 -4.838415 33.407732 0.859700 -1.380300 10.612200 -92.525727 10.183592 24.701417 25.523141 -34.838674 -6.947174 0.574244 -0.068141 11.729947 -7.125000 0.000000 0.000000 95.482167 -12.568327 16.944865 -31.902495 39.852711 -9.070084 0.540108 -3.088850 18.445624 7.125000 0.000000 0.000000 
-0.895037 18.307418 5.637155 -4.669506 -1.625240 -0.875618 -9.486329 -8.385228 -5.596776 1.232108 7.315227 24.059816 -0.526290 5.533213 -12.441266 8.542900 -16.504400 -54.495400 21.306496 -2.917766 6.271238 0.366357 1.001033 1.697888 0.403390 -4.908965 -10.885442 -0.062100 1.607900 -4.423300 2.614750 0.925773 23.097586 -3.768564 0.992912 -17.205011 5.245727 -4.804599 33.523024 0.812000 -1.376500 10.647900 -92.550006 10.193018 24.590734 25.492333 -34.804727 -6.928972 0.571559 -0.070320 11.844237 -7.125000 0.000000 0.000000 95.459435 -12.520330 16.980816 -31.829251 39.794855 -9.038238 0.510430 -3.083948 18.440238 7.125000 0.000000 0.000000 
-0.893174 18.306339 5.642156 -4.729527 -1.670182 -0.893569 -9.449424 -8.377669 -5.555502 1.235773 7.320712 24.081621 -0.519748 5.521979 -12.495575 8.532300 -16.497200 -54.458200 21.344863 -2.887445 6.320750 0.366825 1.000511 1.697680 0.405948 -4.927791 -10.890493 -0.063400 1.624700 -4.469600 2.765754 0.913024 23.070557 -3.807692 0.988283 -17.233978 5.083637 -4.754684 33.542030 0.769700 -1.371200 10.638600 -92.588669 10.234152 24.478238 25.439525 -34.751340 -6.905353 0.572016 -0.075533 11.984639 -7.125000 0.000000 0.000000 95.446695 -12.520637 16.995351 -31.838932 39.763739 -8.977904 0.590205 -3.076892 18.519507 7.125000 0.000000 0.000000 
-0.891605 18.305456 5.645000 -4.816632 -1.698546 -0.897900 -9.390654 -8.310559 -5.560836 1.243038 7.328877 24.112679 -0.508757 5.476072 -12.495198 8.532100 -16.497000 -54.457600 21.398511 -2.867634 6.353258 0.366449 0.998906 1.697260 0.401749 -4.906709 -10.893948 -0.058400 1.559800 -4.290600 3.070304 0.893475 22.992240 -3.905991 0.981262 -17.266006 5.045631 -4.703060 33.446526 0.771100 -1.357200 10.590700 -92.639372 10.278018 24.441545 25.413824 -34.728805 -6.895502 0.572436 -0.079167 12.058780 -7.125000 0.000000 0.000000 95.400125 -12.550029 17.011791 -31.893870 39.777368 -8.963240 0.646156 -3.069761 18.545923 7.125000 0.000000 0.000000 
-0.890820 18.305358 5.646667 -4.848110 -1.701097 -0.857919 -9.364847 -8.241437 -5.633446 1.248737 7.338620 24.139455 -0.508375 5.460881 -12.448081 8.549500 -16.508900 -54.518800 21.422096 -2.854671 6.324335 0.365831 0.997687 1.696777 0.397183 -4.877605 -10.887496 -0.054300 1.504100 -4.137200 3.200851 0.902014 22.925638 -3.958803 0.984586 -17.280856 5.089132 -4.686454 33.355342 0.789800 -1.348900 10.556300 -92.671110 10.279223 24.416637 25.414580 -34.732035 -6.895059 0.570300 -0.080952 12.113116 -7.125000 0.000000 0.000000 95.384283 -12.553382 16.980099 -31.952252 39.823346 -8.989692 0.662556 -3.069839 18.472667 7.125000 0.000000 0.000000 
-0.889349 18.305064 5.649413 -4.831578 -1.714323 -0.859411 -9.375193 -8.236627 -5.642025 1.251287 7.346060 24.158881 -0.514112 5.483858 -12.444062 8.562200 -16.517600 -54.563300 21.412889 -2.847101 6.331378 0.365573 0.999279 1.697454 0.395325 -4.860995 -10.878595 -0.057900 1.552100 -4.269500 3.081088 0.938308 22.996616 -3.960049 0.994083 -17.310539 5.146609 -4.723269 33.339938 0.800200 -1.359500 10.564000 -92.664531 10.247688 24.375890 25.427478 -34.750805 -6.899239 0.566485 -0.083833 12.139426 -7.125000 0.000000 0.000000 95.429219 -12.500478 16.939619 -31.983501 39.865862 -9.010715 0.663318 -3.070438 18.380534 7.125000 0.000000 0.000000 
-0.887094 18.303985 5.653434 -4.781512 -1.722852 -0.903681 -9.413440 -8.262912 -5.582112 1.252932 7.350283 24.171150 -0.505545 5.462289 -12.485490 8.549500 -16.508900 -54.518800 21.368881 -2.862607 6.385158 0.365747 1.002395 1.699147 0.392027 -4.848965 -10.903000 -0.060600 1.588400 -4.369400 2.825154 0.979210 23.127011 -3.919003 1.002438 -17.361029 5.072909 -4.754882 33.413873 0.769600 -1.379200 10.600600 -92.638208 10.235118 24.363551 25.462053 -34.790517 -6.913621 0.562792 -0.085663 12.141738 -7.125000 0.000000 0.000000 95.476481 -12.453255 16.967355 -32.004819 39.897748 -9.019531 0.656307 -3.066226 18.336513 7.125000 0.000000 0.000000 
-0.885427 18.303691 5.657455 -4.739078 -1.701734 -0.895449 -9.453198 -8.284153 -5.573302 1.252865 7.350079 24.170653 -0.497301 5.434513 -12.502602 8.527600 -16.493900 -54.441600 21.325344 -2.884611 6.381050 0.365985 1.003337 1.699662 0.391366 -4.854408 -10.927073 -0.062800 1.616600 -4.447300 2.711134 0.987425 23.181184 -3.887427 1.004547 -17.377341 5.054656 -4.782365 33.528270 0.762600 -1.392400 10.645400 -92.661932 10.168962 24.273600 25.405981 -34.739728 -6.888883 0.562518 -0.091236 12.265359 -7.125000 0.000000 0.000000 95.468273 -12.444370 17.045401 -32.063949 39.937458 -9.022073 0.713211 -3.065170 18.323011 7.125000 0.000000 0.000000 
-0.884250 18.304279 5.660004 -4.739704 -1.650061 -0.844047 -9.470348 -8.304479 -5.616478 1.251717 7.345376 24.160209 -0.495859 5.419273 -12.475602 8.516200 -16.486100 -54.401300 21.308457 -2.913953 6.321512 0.365785 1.001652 1.698649 0.394811 -4.871415 -10.915458 -0.066700 1.665900 -4.583200 2.865827 0.928498 23.158868 -3.896862 0.987181 -17.373150 5.180296 -4.774543 33.570009 0.810900 -1.376900 10.662500 -92.717521 10.097509 24.164346 25.333738 -34.672223 -6.859414 0.565067 -0.094801 12.314319 -7.125000 0.000000 0.000000 95.394264 -12.450063 17.174724 -32.157819 39.998276 -9.034175 0.842897 -3.072723 18.264827 7.125000 0.000000 0.000000 
-0.883367 18.304770 5.662652 -4.686435 -1.583078 -0.793720 -9.532292 -8.382955 -5.632776 1.247584 7.343935 24.150649 -0.500417 5.447304 -12.504272 8.529500 -16.495200 -54.448400 21.251901 -2.965856 6.271725 0.365180 0.999914 1.698009 0.394177 -4.864782 -10.906647 -0.065700 1.653400 -4.548600 2.822517 0.888974 23.032673 -3.833208 0.972104 -17.390667 5.060793 -4.680270 33.515110 0.788700 -1.348100 10.622900 -92.717447 10.140376 24.140075 25.362488 -34.693988 -6.873465 0.566144 -0.090414 12.202382 -7.125000 0.000000 0.000000 95.356436 -12.494941 17.277410 -32.232948 40.056675 -9.068344 0.854280 -3.070646 18.176063 7.125000 0.000000 0.000000 
-0.882485 18.304574 5.666280 -4.580025 -1.535775 -0.757831 -9.628627 -8.476516 -5.620556 1.242945 7.348065 24.150314 -0.508028 5.500229 -12.567338 8.542000 -16.503800 -54.492100 21.161438 -3.012720 6.252752 0.364499 0.999548 1.698417 0.386294 -4.826297 -10.926085 -0.062600 1.614600 -4.441800 2.526862 0.911699 22.892460 -3.717121 0.976325 -17.414430 4.854786 -4.602902 33.490663 0.729700 -1.332400 10.586900 -92.670556 10.225528 24.167188 25.431199 -34.749547 -6.901977 0.564616 -0.084506 12.103689 -7.125000 0.000000 0.000000 95.380653 -12.533057 17.309947 -32.253645 40.078732 -9.098687 0.734044 -3.054487 18.102218 7.125000 0.000000 0.000000 
-0.881014 18.303887 5.668830 -4.552134 -1.505619 -0.743157 -9.656822 -8.467192 -5.645144 1.246024 7.352460 24.163528 -0.503561 5.473675 -12.538425 8.536400 -16.500000 -54.472700 21.124284 -3.041388 6.243452 0.363803 0.999402 1.698737 0.377778 -4.784963 -10.947088 -0.059700 1.576900 -4.337800 2.514947 0.901099 22.879539 -3.706098 0.972417 -17.432623 4.988825 -4.620377 33.534272 0.767200 -1.322600 10.600700 -92.669806 10.227591 24.175211 25.453353 -34.771584 -6.911398 0.563741 -0.081824 12.053277 -7.125000 0.000000 0.000000 95.370862 -12.509956 17.374449 -32.231012 40.063351 -9.099833 0.661973 -3.043359 18.068830 7.125000 0.000000 0.000000 
-0.879445 18.303593 5.670105 -4.608840 -1.456045 -0.721047 -9.617607 -8.406237 -5.719098 1.254373 7.360062 24.191026 -0.493098 5.403976 -12.451536 8.552300 -16.510800 -54.528500 21.151537 -3.081655 6.217183 0.363254 0.997727 1.698246 0.374623 -4.768956 -10.949791 -0.060300 1.584800 -4.359600 2.803852 0.845913 22.834797 -3.786545 0.952362 -17.464448 5.163608 -4.641868 33.649788 0.825900 -1.312400 10.645600 -92.715987 10.189219 24.157632 25.435539 -34.760767 -6.904683 0.563547 -0.081445 12.047295 -7.125000 0.000000 0.000000 95.318248 -12.492345 17.464962 -32.210007 40.056197 -9.116239 0.613433 -3.043666 18.013548 7.125000 0.000000 0.000000 
